REM GENRE Pure Music
REM DATE 2004.3
REM COMMENT "comment play"
PERFORMER "Various Artists"
TITLE "Piano Mood De Luxe"
FILE "Piano Mood De Luxe.APE" WAVE
  TRACK 01 AUDIO
    TITLE "のょうと风.爱情白皮书.original sound track"
    PERFORMER "Various Artists"
    INDEX 01 00:00:00
  TRACK 02 AUDIO
    TITLE "爱しているから.兄弟.original sound track"
    PERFORMER "Various Artists"
    INDEX 00 05:20:49
    INDEX 01 05:22:49
  TRACK 03 AUDIO
    TITLE "Hear Me Cry.恋爱世纪.oringinal sound track"
    PERFORMER "Various Artists"
    INDEX 00 10:17:59
    INDEX 01 10:19:59
  TRACK 04 AUDIO
    TITLE "Silent Emotion.悠长假期.original sound track"
    PERFORMER "Various Artists"
    INDEX 00 14:54:49
    INDEX 01 14:56:49
  TRACK 05 AUDIO
    TITLE "Water Mark .Enya"
    PERFORMER "Various Artists"
    INDEX 00 18:15:38
    INDEX 01 18:17:38
  TRACK 06 AUDIO
    TITLE "许愿.晚九朝五.original sound track"
    PERFORMER "Various Artists"
    INDEX 00 21:19:61
    INDEX 01 21:21:61
  TRACK 07 AUDIO
    TITLE "カスフラシコ.沉睡森林.original sound track"
    PERFORMER "Various Artists"
    INDEX 00 24:58:27
    INDEX 01 25:00:27
  TRACK 08 AUDIO
    TITLE "Dream Come True.等你说爱我.original sound track "
    PERFORMER "Various Artists"
    INDEX 00 29:42:46
    INDEX 01 29:44:46
  TRACK 09 AUDIO
    TITLE " と君のないさた.没有家的女孩.original sound track"
    PERFORMER "Various Artists"
    INDEX 00 33:58:51
    INDEX 01 34:00:51
  TRACK 10 AUDIO
    TITLE "Lvoe Lvoe Lvoe.听不到的情话.original sound track"
    PERFORMER "Various Artists "
    INDEX 00 38:55:33
    INDEX 01 38:57:33
  TRACK 11 AUDIO
    TITLE "ひざきりの诗.同一屋檐下.original sound track"
    PERFORMER "Various Artists"
    INDEX 00 41:57:44
    INDEX 01 41:59:44
  TRACK 12 AUDIO
    TITLE "Tokyo Love Story.东京爱情故事.original sound track "
    PERFORMER "Various Artists"
    INDEX 00 45:49:69
    INDEX 01 45:51:69
